<svg xmlns="http://www.w3.org/2000/svg" width="292" height="292" viewBox="0 0 292 292">
  <path id="Icon_ionic-ios-checkmark-circle" data-name="Icon ionic-ios-checkmark-circle" d="M149.375,3.375a146,146,0,1,0,146,146A145.978,145.978,0,0,0,149.375,3.375ZM224.13,109.014l-93.847,94.268h-.07c-1.193,1.193-4.422,3.861-8.142,3.861-2.667,0-5.686-1.474-8.213-4L74.55,163.835a2.8,2.8,0,0,1,0-4l12.494-12.494a2.714,2.714,0,0,1,3.931,0L122.14,178.5l85.635-86.266a2.772,2.772,0,0,1,1.965-.842h0a2.549,2.549,0,0,1,1.965.842l12.284,12.7A2.767,2.767,0,0,1,224.13,109.014Z" transform="translate(-3.375 -3.375)" fill="#b71d21"/>
</svg>
