<svg xmlns="http://www.w3.org/2000/svg" width="23.539" height="23.539" viewBox="0 0 23.539 23.539">
  <path id="Icon_ionic-ios-checkmark-circle" data-name="Icon ionic-ios-checkmark-circle" d="M15.144,3.375A11.769,11.769,0,1,0,26.914,15.144,11.767,11.767,0,0,0,15.144,3.375Zm6.026,8.516-7.565,7.6H13.6a1.022,1.022,0,0,1-.656.311.991.991,0,0,1-.662-.323L9.113,16.31a.225.225,0,0,1,0-.323L10.12,14.98a.219.219,0,0,1,.317,0l2.512,2.512,6.9-6.954a.223.223,0,0,1,.158-.068h0a.205.205,0,0,1,.158.068l.99,1.024A.223.223,0,0,1,21.17,11.891Z" transform="translate(-3.375 -3.375)" fill="#16c928"/>
</svg>
