<svg xmlns="http://www.w3.org/2000/svg" width="11.821" height="11.822" viewBox="0 0 11.821 11.822">
  <path id="Icon_ionic-ios-female" data-name="Icon ionic-ios-female" d="M3.763,15.2a.378.378,0,0,0,.273-.114l1.273-1.273,1.052,1.052a.383.383,0,0,0,.273.114.378.378,0,0,0,.273-.114.386.386,0,0,0,0-.546L5.855,13.271,7.276,11.85A4.805,4.805,0,1,0,6.73,11.3L5.309,12.725,4.257,11.673a.383.383,0,0,0-.273-.114.378.378,0,0,0-.273.114.386.386,0,0,0,0,.546l1.052,1.052L3.49,14.544a.387.387,0,0,0,.273.659ZM7.54,5.335a4.032,4.032,0,1,1-1.18,2.851A4.012,4.012,0,0,1,7.54,5.335Z" transform="translate(-3.377 -3.382)" fill="#ffa2f6"/>
</svg>
