<svg id="Icon_ionic-ios-people" data-name="Icon ionic-ios-people" xmlns="http://www.w3.org/2000/svg" width="37.948" height="24.662" viewBox="0 0 37.948 24.662">
  <path id="Path_686" data-name="Path 686" d="M27.85,26.722c-.947-.338-2.493-.355-3.178-.617a4.49,4.49,0,0,1-1.471-.685,9.087,9.087,0,0,1-.245-2.409,3.891,3.891,0,0,0,.837-1.183A13.15,13.15,0,0,0,24.2,19.5s.558.237.778-.879c.186-.963.541-1.471.448-2.181s-.49-.541-.49-.541.49-.718.49-3.161c0-2.519-1.9-4.995-5.46-4.995S14.5,10.233,14.5,12.743c0,2.443.482,3.161.482,3.161s-.4-.169-.49.541.254,1.217.448,2.181c.22,1.124.778.879.778.879a13.277,13.277,0,0,0,.406,2.324,3.891,3.891,0,0,0,.837,1.183,9.087,9.087,0,0,1-.245,2.409,4.321,4.321,0,0,1-1.471.676c-.676.262-2.223.3-3.178.634a5.965,5.965,0,0,0-3.871,5.68H31.712A5.953,5.953,0,0,0,27.85,26.722Z" transform="translate(-1.007 -7.748)" fill="#b71d21"/>
  <path id="Path_687" data-name="Path 687" d="M11.385,21.908a5.738,5.738,0,0,0,2.823-.786c-1.31-1.986-.6-4.3-.871-6.466A3.566,3.566,0,0,0,9.39,11.208H9.356a3.577,3.577,0,0,0-3.913,3.448c-.27,2.155.482,4.733-.862,6.466.8.727,2.831.7,2.831.7h0a4.28,4.28,0,0,1-.085,1.42,2.134,2.134,0,0,1-1.014.465,19.61,19.61,0,0,0-2.189.609,3.558,3.558,0,0,0-1.91,3.144H9a6.072,6.072,0,0,1,2.7-2.519,5.675,5.675,0,0,1,2.088-.439s.321-.507-.735-.7a7.2,7.2,0,0,1-1.623-.566C11.275,23.049,11.385,21.908,11.385,21.908Z" transform="translate(-2.215 -7.05)" fill="#b71d21"/>
  <path id="Path_688" data-name="Path 688" d="M26.631,21.908a5.738,5.738,0,0,1-2.823-.786c1.31-1.986.6-4.3.871-6.466a3.566,3.566,0,0,1,3.947-3.448h.034a3.577,3.577,0,0,1,3.913,3.448c.27,2.155-.482,4.733.862,6.466-.8.727-2.831.7-2.831.7h0a4.28,4.28,0,0,0,.085,1.42,2.134,2.134,0,0,0,1.014.465,19.61,19.61,0,0,1,2.189.609A3.558,3.558,0,0,1,35.8,27.46H29.014a6.072,6.072,0,0,0-2.7-2.519,5.675,5.675,0,0,0-2.088-.439s-.321-.507.735-.7a7.2,7.2,0,0,0,1.623-.566C26.741,23.049,26.631,21.908,26.631,21.908Z" transform="translate(2.147 -7.05)" fill="#b71d21"/>
</svg>
