<svg xmlns="http://www.w3.org/2000/svg" width="19.448" height="19.448" viewBox="0 0 19.448 19.448">
  <path id="Icon_metro-phone-in-talk" data-name="Icon metro-phone-in-talk" d="M24.794,19.932a12.324,12.324,0,0,1-3.857-.616,1.084,1.084,0,0,0-1.1.265l-2.377,2.382a16.3,16.3,0,0,1-7.12-7.115l2.377-2.382a1.084,1.084,0,0,0,.265-1.1,12.358,12.358,0,0,1-.616-3.863,1.077,1.077,0,0,0-1.08-1.08H7.507a1.077,1.077,0,0,0-1.08,1.08A18.366,18.366,0,0,0,24.794,25.875a1.077,1.077,0,0,0,1.08-1.08V21.013a1.077,1.077,0,0,0-1.08-1.08Zm-1.08-3.782h2.161a9.725,9.725,0,0,0-9.724-9.724V8.588A7.565,7.565,0,0,1,23.714,16.151Zm-4.322,0h2.161a5.4,5.4,0,0,0-5.4-5.4v2.161A3.244,3.244,0,0,1,19.392,16.151Z" transform="translate(-6.427 -6.427)" fill="#ebbe33"/>
</svg>
