<svg id="Component_1_1" data-name="Component 1 – 1" xmlns="http://www.w3.org/2000/svg" width="34.091" height="24.333" viewBox="0 0 34.091 24.333">
  <g id="Group_101" data-name="Group 101" transform="translate(0 2.927)">
    <path id="Path_697" data-name="Path 697" d="M560.968,903.294l4.834,3.65c-.755.469-1.531.526-2.19.88a1.853,1.853,0,0,0-.912,2.573,1.83,1.83,0,0,0,2.459,1,11.488,11.488,0,0,1,3.107-.975,10.388,10.388,0,0,1,2.038.112,1.239,1.239,0,0,1,.955.685l-5.449,7.235H552.4a13.118,13.118,0,0,1-1.811-1.371Z" transform="translate(-546.544 -899.145)" fill="#b71d21"/>
    <path id="Path_698" data-name="Path 698" d="M744.883,842.362c-.662-1.41-2.416-1.262-3.924.333a3.483,3.483,0,0,1-.917-.616c-.572-.425-1.132-.865-1.74-1.332a16.254,16.254,0,0,1,3.274-3.536,2.673,2.673,0,0,1,1.645-.461,23.157,23.157,0,0,1,2.655.035,4.622,4.622,0,0,0,2.579-.413,3.393,3.393,0,0,1,.541-.158l4.241,5.3c.054.336-.148.5-.285.684a15,15,0,0,1-5.1,4.321,4.139,4.139,0,0,1-2.361.5,7.825,7.825,0,0,0-4.218.993,1.438,1.438,0,0,1-2.145-.832,1.357,1.357,0,0,1,.711-1.87,15.961,15.961,0,0,1,1.732-.607,7.106,7.106,0,0,0,2.664-1.466C744.5,842.991,744.825,842.771,744.883,842.362Z" transform="translate(-722.648 -836.214)" fill="#b71d21"/>
    <path id="Path_699" data-name="Path 699" d="M510.314,1161.107l.033,1.248-25.093.061-.008-1.263Z" transform="translate(-485.246 -1141.01)" fill="#b71d21"/>
  </g>
  <g id="Group_102" data-name="Group 102" transform="translate(26.355)">
    <path id="Path_700" data-name="Path 700" d="M913.9,788.9l-2.593,2.06,5.167,6.464a26.39,26.39,0,0,0,2.569-2.082Zm3.733,7.076a.686.686,0,1,1,.686-.686A.686.686,0,0,1,917.632,795.977Z" transform="translate(-911.306 -788.901)" fill="#b71d21"/>
  </g>
</svg>
