<svg xmlns="http://www.w3.org/2000/svg" width="25.936" height="19.302" viewBox="0 0 25.936 19.302">
  <path id="Icon_metro-phone-missed" data-name="Icon metro-phone-missed" d="M9.594,9.128l5.942,5.943L23.1,7.507l-1.08-1.08-6.483,6.483L10.674,8.047h3.782V6.427H7.973v6.483H9.594ZM28.183,21.2a18.372,18.372,0,0,0-25.293,0,1.078,1.078,0,0,0-.319.767,1.056,1.056,0,0,0,.319.762L5.564,25.4a1.083,1.083,0,0,0,1.523.011,12.607,12.607,0,0,1,2.879-2,1.089,1.089,0,0,0,.605-.972V19.084a16.3,16.3,0,0,1,9.935.005v3.355a1.089,1.089,0,0,0,.605.972,12.277,12.277,0,0,1,2.879,2,1.083,1.083,0,0,0,1.523-.011l2.674-2.68a1.078,1.078,0,0,0,.319-.762,1.1,1.1,0,0,0-.324-.773Z" transform="translate(-2.571 -6.427)" fill="#b5b9bc"/>
</svg>
